<svg xmlns="http://www.w3.org/2000/svg" xmlns:xlink="http://www.w3.org/1999/xlink" viewBox="0,0,256,256" width="48px" height="48px" fill-rule="evenodd"><g fill="#ffffff" fill-rule="evenodd" stroke="none" stroke-width="1" stroke-linecap="butt" stroke-linejoin="miter" stroke-miterlimit="10" stroke-dasharray="" stroke-dashoffset="0" font-family="none" font-weight="none" font-size="none" text-anchor="none" style="mix-blend-mode: normal"><g transform="scale(10.66667,10.66667)"><path d="M12,1.25c-5.933,0 -10.75,4.817 -10.75,10.75c0,2.50813 0.86845,4.81098 2.31055,6.64063c-0.00416,0.00363 -0.00363,0.00221 -0.00781,0.00586c0.02598,0.03295 0.05763,0.06111 0.08398,0.09375c0.16544,0.20497 0.34171,0.39962 0.52148,0.5918c0.07275,0.07775 0.13985,0.16076 0.21484,0.23633c0.2602,0.2622 0.53247,0.51165 0.81836,0.74609c0.08713,0.07145 0.18211,0.13244 0.27148,0.20117c0.20354,0.15654 0.40838,0.3112 0.62305,0.45313c0.12529,0.08282 0.25589,0.15673 0.38477,0.23438c0.1989,0.11985 0.39846,0.23669 0.60547,0.34375c0.13099,0.06776 0.26438,0.1309 0.39844,0.19336c0.20698,0.09642 0.41699,0.18616 0.63086,0.26953c0.15226,0.05938 0.3054,0.11543 0.46094,0.16797c0.20744,0.07006 0.41799,0.13194 0.63086,0.18945c0.15644,0.04228 0.31152,0.08579 0.4707,0.12109c0.25704,0.057 0.51963,0.10046 0.7832,0.13867c0.1169,0.01694 0.23152,0.03959 0.34961,0.05273c0.39442,0.04394 0.79315,0.07031 1.19922,0.07031c0.40606,0 0.8048,-0.02637 1.19922,-0.07031c0.11808,-0.01314 0.23271,-0.03579 0.34961,-0.05273c0.26357,-0.03821 0.52617,-0.08167 0.7832,-0.13867c0.15918,-0.0353 0.31426,-0.07881 0.4707,-0.12109c0.21287,-0.05752 0.42342,-0.11939 0.63086,-0.18945c0.15554,-0.05254 0.30867,-0.10859 0.46094,-0.16797c0.21387,-0.08337 0.42388,-0.17311 0.63086,-0.26953c0.13406,-0.06246 0.26744,-0.1256 0.39844,-0.19336c0.207,-0.10706 0.40657,-0.2239 0.60547,-0.34375c0.12888,-0.07765 0.25948,-0.15155 0.38477,-0.23437c0.21467,-0.14193 0.41951,-0.29659 0.62305,-0.45312c0.08938,-0.06874 0.18435,-0.12972 0.27148,-0.20117c0.28589,-0.23444 0.55816,-0.48389 0.81836,-0.74609c0.075,-0.07557 0.1421,-0.15858 0.21484,-0.23633c0.17978,-0.19218 0.35604,-0.38683 0.52148,-0.5918c0.02636,-0.03264 0.058,-0.0608 0.08398,-0.09375l-0.00781,-0.00586c1.4421,-1.82964 2.31055,-4.13249 2.31055,-6.64062c0,-5.933 -4.817,-10.75 -10.75,-10.75zM12,2.75c5.105,0 9.25,4.145 9.25,9.25c0,2.12592 -0.72595,4.07965 -1.93359,5.64258c-1.92033,-1.78903 -4.4869,-2.89258 -7.31641,-2.89258c-2.82853,0 -5.39659,1.10343 -7.31641,2.89258c-1.20764,-1.56293 -1.93359,-3.51666 -1.93359,-5.64258c0,-5.105 4.145,-9.25 9.25,-9.25zM12,5.25c-2.34721,0 -4.25,1.90279 -4.25,4.25c0,2.34721 1.90279,4.25 4.25,4.25c2.34721,0 4.25,-1.90279 4.25,-4.25c0,-2.34721 -1.90279,-4.25 -4.25,-4.25z"></path></g></g></svg>