<svg width="100%" height="100%" viewBox="0 0 48 48" version="1.1" xmlns="http://www.w3.org/2000/svg"
     xml:space="preserve"
     style="fill-rule:evenodd;clip-rule:evenodd;stroke-linejoin:round;stroke-miterlimit:2;">
    <path
        d="M13.05,42C12.225,42 11.519,41.706 10.931,41.119C10.344,40.531 10.05,39.825 10.05,39L10.05,10.5L8,10.5L8,7.5L17.4,7.5L17.4,6L30.6,6L30.6,7.5L40,7.5L40,10.5L37.95,10.5L37.95,39C37.95,39.8 37.65,40.5 37.05,41.1C36.45,41.7 35.75,42 34.95,42L13.05,42ZM34.95,10.5L13.05,10.5L13.05,39L34.95,39L34.95,10.5ZM18.35,34.7L21.35,34.7L21.35,14.75L18.35,14.75L18.35,34.7ZM26.65,34.7L29.65,34.7L29.65,14.75L26.65,14.75L26.65,34.7ZM13.05,10.5L13.05,39L13.05,10.5Z"
        style="fill-rule:nonzero;"/>
</svg>
