<svg width="54" height="63" viewBox="0 0 54 63" fill="none" xmlns="http://www.w3.org/2000/svg">
<path d="M27 62.3333C19.5556 62.3333 13.25 59.75 8.08334 54.5833C2.91667 49.4166 0.333336 43.1111 0.333336 35.6666C0.333336 29.2222 2.31945 22.9722 6.29167 16.9166C10.2639 10.8611 15.7222 5.6944 22.6667 1.41662C23.6111 0.805513 24.5694 0.791624 25.5417 1.37496C26.5139 1.95829 27 2.83329 27 3.99996V9.99996C27 11.8888 27.6528 13.4722 28.9583 14.75C30.2639 16.0277 31.8611 16.6666 33.75 16.6666C34.75 16.6666 35.6806 16.4583 36.5417 16.0416C37.4028 15.625 38.1667 15 38.8333 14.1666C39.2778 13.6666 39.7778 13.3194 40.3333 13.125C40.8889 12.9305 41.4167 13 41.9167 13.3333C45.5833 15.8333 48.4583 19.0555 50.5417 23C52.625 26.9444 53.6667 31.1666 53.6667 35.6666C53.6667 43.1111 51.0833 49.4166 45.9167 54.5833C40.75 59.75 34.4444 62.3333 27 62.3333ZM5.33334 35.6666C5.33334 39.1666 6.125 42.4583 7.70834 45.5416C9.29167 48.625 11.5 51.1944 14.3333 53.25C14.1111 52.5833 13.9444 51.9027 13.8333 51.2083C13.7222 50.5138 13.6667 49.8333 13.6667 49.1666C13.6667 47.3888 14 45.7222 14.6667 44.1666C15.3333 42.6111 16.3056 41.1944 17.5833 39.9166L27 30.6666L36.4167 39.9166C37.6944 41.1944 38.6667 42.6111 39.3333 44.1666C40 45.7222 40.3333 47.3888 40.3333 49.1666C40.3333 49.8333 40.2778 50.5138 40.1667 51.2083C40.0556 51.9027 39.8889 52.5833 39.6667 53.25C42.5 51.1944 44.7083 48.625 46.2917 45.5416C47.875 42.4583 48.6667 39.1666 48.6667 35.6666C48.6667 32.6666 48.0278 29.7361 46.75 26.875C45.4722 24.0138 43.6389 21.3888 41.25 19C40.0833 19.8333 38.8611 20.4861 37.5833 20.9583C36.3056 21.4305 35.0278 21.6666 33.75 21.6666C30.3611 21.6666 27.5556 20.5138 25.3333 18.2083C23.1111 15.9027 22 13 22 9.49996V7.83329C16.8889 11.5 12.8333 15.8472 9.83334 20.875C6.83334 25.9027 5.33334 30.8333 5.33334 35.6666ZM27 37.6666L21.0833 43.5C20.3056 44.2777 19.7083 45.1388 19.2917 46.0833C18.875 47.0277 18.6667 48.0555 18.6667 49.1666C18.6667 51.4444 19.4722 53.375 21.0833 54.9583C22.6944 56.5416 24.6667 57.3333 27 57.3333C29.3333 57.3333 31.3056 56.5416 32.9167 54.9583C34.5278 53.375 35.3333 51.4444 35.3333 49.1666C35.3333 48.0555 35.125 47.0277 34.7083 46.0833C34.2917 45.1388 33.6944 44.2777 32.9167 43.5L27 37.6666Z" fill="url(#paint0_linear_32_913)"/>
<defs>
<linearGradient id="paint0_linear_32_913" x1="0.333335" y1="-0.160718" x2="20.6611" y2="36.7019" gradientUnits="userSpaceOnUse">
<stop stop-color="#329D9C"/>
<stop offset="1" stop-color="#7BE495"/>
</linearGradient>
</defs>
</svg>
